<svg xmlns="http://www.w3.org/2000/svg" viewBox="0 0 259.39 128.27"><defs><style>.cls-1{fill:#ce0e2d;}.cls-2{fill:#231f20;}</style></defs><title>Asset 1</title><g id="Layer_2" data-name="Layer 2"><g id="Layer_1-2" data-name="Layer 1"><path class="cls-1" d="M238.06,61c-2.66,2.89-3.11,3.78-5.33,10a111.59,111.59,0,0,1-8,17.77c-1.55,3.34-4.22,8-5.55,12,0,.89.22,1.33,1.33,1.33a72.78,72.78,0,0,1,9.33-6.44,57.74,57.74,0,0,1,13.78-6.22c.44.44,1.11.89,1.11,1.33.22.45-.22,1.11-.22,1.56a29.68,29.68,0,0,0-6.22,3.33c-2,1.56-7.34,4.44-8.89,6.44-.45.45-.89,1.56-1.56,2a13.76,13.76,0,0,0-2.44,1.34,25.51,25.51,0,0,0-1.33,3.33c-3.78,3.11-5.34,4.22-12.44,18.44l-2.23,1.11c-4.44-.89-5.55-2.44-5.77-5.33l10.22-23.77c3.77-8.22,4-9.34,4.88-14-2.22-4.44-2.88-6-3.55-8.67V74.06c3.11-2,3.11-2.67,3.78-5.78A40,40,0,0,0,224.29,63c1.11-2,2.22-4.44,4-8a39,39,0,0,0,2.89-3.33c.66-1.33,2.22-4,3.55-6.44a4.64,4.64,0,0,1,3.11-.45c2.22.45,3.33,2.45,4,7.34ZM257,21.41c-.22.44-.45.44-2,.66-2.45,2.67-2.67,2.89-4.22,2.89-1.78,0-6.67-1.78-6.67-5.77a7,7,0,0,1,2-4.67c2.44-2.44,4-3.56,5.78-5.11,2.22.22,7.55,1.11,7.55,6.44A10,10,0,0,1,257,21.41Z"/><path class="cls-2" d="M211.25,87.23,179.4.12a.17.17,0,0,0-.17-.12H168.79a.2.2,0,0,0-.18.12L136.44,87.23a.18.18,0,0,0,.17.25h13.45a.2.2,0,0,0,.18-.12L173.66,20a.37.37,0,0,1,.7,0l23.09,67.35a.2.2,0,0,0,.18.12h13.45A.18.18,0,0,0,211.25,87.23Z"/><path class="cls-2" d="M125.77,0H91.31a.19.19,0,0,0-.18.14L76.06,62.51a.37.37,0,0,1-.72,0L57.67.14A.2.2,0,0,0,57.49,0h-10a.18.18,0,0,0-.17.14L29.62,62.53a.37.37,0,0,1-.72,0L13.83.14A.19.19,0,0,0,13.65,0H.19A.18.18,0,0,0,0,.23L22.94,87.34a.18.18,0,0,0,.18.14H34.4a.18.18,0,0,0,.18-.13L52.12,26.19a.38.38,0,0,1,.72,0L70.38,87.35a.18.18,0,0,0,.18.13H81.84a.17.17,0,0,0,.18-.14l9-34.19a.37.37,0,0,1,.36-.27h35.33c14.44,0,25.71-11.64,25.92-26C152.85,12.09,140.54,0,125.77,0Zm-2.08,41.27H94.63a.37.37,0,0,1-.36-.46l7.55-28.67a.74.74,0,0,1,.72-.55h22.88c8.19,0,14.07,6.24,14.07,14.84C139.49,36.72,131.71,41.09,123.69,41.27Z"/></g></g></svg>